<?xml version="1.0" encoding="utf-8"?>
<!-- Generator: Adobe Illustrator 25.0.0, SVG Export Plug-In . SVG Version: 6.00 Build 0)  -->
<svg version="1.1" id="Calque_1" xmlns="http://www.w3.org/2000/svg" xmlns:xlink="http://www.w3.org/1999/xlink" x="0px" y="0px"
	 viewBox="0 0 127.56 170.08" style="enable-background:new 0 0 127.56 170.08;" xml:space="preserve">
<style type="text/css">
	.st0{fill:#343434;}
</style>
<g>
	<path class="st0" d="M70.2,112.43c1.16-0.13,2.56-0.07,3.65-0.53c1.91-0.8,0.85-3.26,0.72-4.86c-0.37-4.28-0.87-8.98,0.08-13.2
		c0.48-2.13,1.25-4.21,2.03-6.25c0.69-1.81,1.76-3.62,2.13-5.53c0.31-1.57-0.19-3.08-0.57-4.59c-0.27-1.06-0.51-2.12-0.76-3.18
		c0.06-0.1,0.09-0.22,0.05-0.37c-0.92-3.61-0.61-7.67-0.58-11.37c0.03-3.8-0.16-7.62-0.23-11.42c-0.05-2.86,0.78-10.78-3.92-10.7
		c-0.18,0-0.3,0.09-0.38,0.2c-2.3,0.69-2.5,4.58-2.54,6.69c-0.06,2.79,0.15,5.59,0.11,8.39c-0.02,1.2,0.44,7.88-1.02,9.49
		c-0.02,0-0.03,0-0.05,0c-1.19,0.3-3.86-17.27-4.14-18.47c-0.51-2.21-1.53-9.62-4.94-9.57c-0.11-0.09-0.25-0.14-0.43-0.08
		c-0.32,0.1-0.59,0.24-0.83,0.41c-0.01,0.01-0.02,0.01-0.04,0.02c-0.05,0.02-0.08,0.06-0.12,0.09c-2.25,1.76-1.03,6.39-0.51,8.68
		c0.65,2.91,1.22,5.83,1.7,8.77c0.6,3.68,1.72,8.06,1.27,11.86c-0.89-1.94-2.25-3.21-4.39-2.24c0,0,0,0,0,0c0,0,0,0-0.01,0
		c-0.09,0.04-0.18,0.08-0.28,0.13c-0.03,0.01-0.04,0.03-0.06,0.05c-1.07,0.63-1.26,1.74-1.26,3.03c0,0.98,0.1,1.96,0.24,2.94
		c-0.83-0.7-1.94-0.91-3.13-0.13c-2.79,1.84-1.78,7.14-1.96,9.9c-0.28,4.33-0.7,9.71,1.25,13.73c1.36,2.8,2.49,5.8,4.5,8.12
		c1.1,2.48,0.59,5.3,0.51,7.93c-0.14,0.22-0.16,0.55,0.11,0.75c2.2,1.65,5.4,1.85,8.06,1.84C66.4,112.94,68.29,112.64,70.2,112.43z
		 M70.6,63.97c0.51-2.81,0.35-5.9,0.38-8.74c0.02-1.93-1.39-14.38,2.53-13.69c2.18,0.65,2.04,4.51,2.12,6.34
		c0.13,3.25,0.1,6.5,0.19,9.75c0.1,3.48-0.17,7.21-0.02,10.83c-0.5-1.3-1.24-2.36-2.86-2.36c-1.15,0-2.24,0.02-3.34-0.03
		C70.16,65.61,70.44,64.85,70.6,63.97z M59.76,50.15c-0.44-2.34-3.15-9.92-0.7-11.79c5.06-2.45,5.63,23.24,8.97,27.3
		c-0.09,0.07-0.16,0.16-0.19,0.27c-0.41-0.05-0.82-0.11-1.23-0.2c-1.15-0.25-2.82-1.05-4.03-0.56c-0.26,0.1-0.46,0.24-0.63,0.4
		c-0.01-2.01-0.38-4.02-0.65-6C60.86,56.41,60.34,53.27,59.76,50.15z M65.98,67.27c-0.11,0.4-0.52,0.71-0.92,0.75
		c-0.61,0.05-1.07-0.37-1.38-0.85c-0.12-0.19-0.25-0.41-0.4-0.59c0.51-0.22,1.21-0.26,1.93-0.16c0.23,0.03,0.46,0.08,0.69,0.12
		C65.96,66.77,66.04,67.03,65.98,67.27z M56.71,65.66C56.71,65.66,56.71,65.66,56.71,65.66c3.83-2.02,4.59,6.82,4.96,8.89
		c0.1,0.56,0.98,4.65,0.67,7.07c-0.02-0.27-0.06-0.53-0.1-0.77c-0.05-0.29-0.11-0.57-0.32-0.79c-0.49-0.49-1.31-0.37-1.91-0.23
		c-1.34,0.31-1.38,1.39-0.96,2.37c-1.04-1.36-1.39-3.64-1.67-5.1c-0.12-0.65-0.54-2.11-0.93-3.77c0.02-0.08,0.04-0.17,0.01-0.27
		c-0.05-0.22-0.13-0.43-0.21-0.64C55.63,69.52,55.28,66.34,56.71,65.66z M61.49,83.31c-0.01,0-0.02,0-0.03,0
		c-0.68,0.06-1.23-0.11-1.7-0.43c-0.19-0.4-0.34-0.82-0.42-1.25c-0.13-0.77,0.25-1.15,0.98-1.3c0.62-0.12,1.21-0.14,1.42,0.58
		c0.14,0.48,0.06,1.01,0.29,1.46c0.03,0.05,0.07,0.06,0.12,0.06C62.01,82.85,61.8,83.17,61.49,83.31z M55.36,82.92
		c-0.02-0.04-0.05-0.08-0.06-0.12c-0.24-0.55-0.03-0.84,0.43-1.14c0.61-0.39,1.17-0.4,1.81-0.15c0.19,0.43,0.41,0.83,0.66,1.19
		C57.5,83.68,56.3,83.52,55.36,82.92z M57.3,110.49c0.05-2.24,0.36-4.5-0.07-6.68c0.29,0.23,0.57,0.47,0.89,0.68
		c0.54,0.35,1.04-0.51,0.5-0.86c-0.77-0.5-1.41-1.09-1.98-1.73c0,0,0,0,0-0.01c-0.04-0.09-0.1-0.15-0.17-0.19
		c-1.3-1.53-2.17-3.36-3.02-5.27c-0.54-1.2-1.24-2.33-1.69-3.57c-0.62-1.72-0.69-3.59-0.77-5.4c-0.15-3.11,0.1-6.15,0.14-9.25
		c0.02-1.63-0.15-3.49,0.39-5.04c0.82-2.36,3.28-2.62,3.97,0.15c0.02,0.1,0.07,0.17,0.13,0.22c0.23,1.12,0.49,2.24,0.7,3.34
		c0.21,1.12,0.47,2.59,0.94,3.93c-0.68-0.17-1.51,0.18-2.02,0.57c-0.27,0.21-0.62,0.52-0.64,0.89c-0.16-0.18-0.3-0.37-0.4-0.57
		c-0.7-1.33-0.71-2.88-1.56-4.15c-0.35-0.53-1.22-0.03-0.86,0.5c1.26,1.9,0.9,4.49,3.1,5.77c1.33,0.78,3.02,0.79,4-0.36
		c0.52,0.46,1.14,0.77,1.92,0.84c0.07,0.04,0.15,0.08,0.24,0.08c3.95,0.22,1.92-8.33,1.6-10.11c-0.22-1.21-0.52-3.85-1.26-6.11
		c0.05,0,0.09-0.01,0.13-0.03c0.22,0.79,0.66,1.56,1.12,2.04c1.26,1.33,3.13,2.04,4.98,2.1c0.15,0.78,0.45,1.58,0.89,2.31
		c-1.83,6.18-8.41,10.37-8.71,17.08c-0.03,0.64,0.97,0.64,1,0c0.28-6.23,6.35-10.42,8.43-16.08c0.58,0.66,1.28,1.18,2.06,1.44
		c0.61,0.2,0.87-0.76,0.27-0.96c-0.81-0.27-1.54-0.96-2.08-1.77c0,0,0,0,0,0c-0.43-0.65-0.73-1.37-0.86-2.04
		c0.68-0.07,1.33-0.22,1.94-0.47c0.59-0.24,0.33-1.21-0.27-0.96c-1.84,0.76-3.93,0.59-5.68-0.39c-0.74-0.42-1.45-0.98-1.85-1.75
		c-0.5-0.96-0.31-1.6,0.24-1.96c0.28,0.33,0.39,0.76,0.69,1.13c0.36,0.43,0.91,0.69,1.47,0.64c1-0.1,1.47-0.99,1.31-1.85
		c0.93,0.19,1.85,0.4,2.81,0.48c1.32,0.11,3.45-0.39,4.6,0.28c1.31,0.77,1.89,4.15,2.3,5.64c0.46,1.7,0.83,3.43,1.22,5.15
		c0.59,2.57,0.38,4.03-0.59,6.35c-0.72,1.73-1.39,3.49-2,5.26c-2.2,6.42-1.62,12.81-0.93,19.44c0.21,2.03-1.43,1.94-3.09,2.13
		c-1.74,0.2-3.48,0.46-5.23,0.55C62.88,112.05,59.61,111.99,57.3,110.49z"/>
	<path class="st0" d="M61.31,104.61c0.27,1.16,0.34,2.35,0.48,3.53c0.08,0.63,1.08,0.64,1,0c-0.16-1.27-0.23-2.55-0.52-3.8
		C62.12,103.71,61.16,103.98,61.31,104.61z"/>
	<path class="st0" d="M71.69,50.36c0.77,0.39,1.72,0.53,2.52,0.15c0.4-0.19,0.11-0.76-0.29-0.68c-0.66,0.14-1.23,0.21-1.87-0.09
		C71.64,49.55,71.28,50.15,71.69,50.36z"/>
	<path class="st0" d="M73.78,59.14c-0.6,0.01-1.22-0.2-1.8-0.11c-0.21,0.03-0.24,0.31-0.12,0.44c0.46,0.47,1.3,0.51,1.92,0.52
		C74.32,60,74.33,59.14,73.78,59.14z"/>
	<path class="st0" d="M62.54,47.38c0.01-0.15-0.11-0.29-0.25-0.33c-0.38-0.11-0.6,0.16-0.94,0.26c-0.36,0.11-0.72,0.07-1.08,0.12
		c-0.3,0.05-0.29,0.46-0.08,0.6C60.79,48.43,62.48,48.28,62.54,47.38z"/>
	<path class="st0" d="M61.77,56.99c0.66,0.32,1.39,0.15,2.06-0.07c0.57-0.18,0.3-1.1-0.25-0.89c-0.6,0.23-1.25,0.29-1.82,0.6
		C61.64,56.71,61.63,56.93,61.77,56.99z"/>
</g>
</svg>
