<?xml version="1.0" encoding="utf-8"?>
<!-- Generator: Adobe Illustrator 25.0.0, SVG Export Plug-In . SVG Version: 6.00 Build 0)  -->
<svg version="1.1" id="Calque_1" xmlns="http://www.w3.org/2000/svg" xmlns:xlink="http://www.w3.org/1999/xlink" x="0px" y="0px"
	 viewBox="0 0 127.56 170.08" style="enable-background:new 0 0 127.56 170.08;" xml:space="preserve">
<style type="text/css">
	.st0{fill:#343434;}
</style>
<g>
	<g>
		<path class="st0" d="M63.74,112.28c1.15-0.03,2.32-0.04,3.46-0.24c0.81-0.14,1.54-0.36,1.8-1.21c0.31-1.02,0.13-2.23,0.01-3.27
			c-0.36-3.14-0.71-6.21-0.72-9.38c0-0.03,0-0.05-0.01-0.07c0.02,0,0.03,0,0.05-0.01c0.84-0.15,1.53-0.53,2.16-1.11
			c1.44-1.32,2.36-3.2,3.58-4.71c1.28-1.59,2.61-3.17,3.62-4.96c1.03-1.81,1.48-3.65,1.63-5.71c0.1-1.36,0.14-2.74,0.39-4.09
			c0.17-0.93,0.5-1.78,0.32-2.73c-0.22-1.13-0.75-2.18-0.99-3.31c-0.27-1.29-0.42-2.6-0.62-3.91c-0.18-1.15-0.73-2.85-2.2-2.73
			c-0.52,0.04-0.97,0.29-1.35,0.64c-0.12-3.11-0.27-6.21-0.47-9.32c-0.12-1.83-0.26-3.66-0.41-5.48c-0.1-1.24-0.05-2.61-0.41-3.81
			c-0.48-1.63-2.58-2.93-3.87-1.62c-0.05-0.48-0.1-0.95-0.15-1.41c-0.21-1.89-0.95-3.85-3.23-3.49c-2.49,0.39-3.04,3.24-3.18,5.35
			c-0.02,0.25-0.03,0.51-0.03,0.76c-0.74-0.53-1.73-0.43-2.64,0.37c-1.49,1.33-1.8,3.36-1.94,5.29c-0.51-0.36-1.16-0.44-1.87-0.2
			c-1.32,0.45-1.93,1.66-2.22,2.93c-0.44,1.88-0.62,3.79-1.13,5.67c-0.59,2.19-1.32,4.34-1.94,6.52c-1.23,4.34-1.64,8.72-1.84,13.22
			c-0.16,3.69-0.3,7.46,0.16,11.13c0.14,1.12,0.37,2.4,0.82,3.55c-0.01,0.06-0.01,0.13,0,0.2c0.55,2.94,0.08,5.96-0.06,8.92
			c-0.07,1.42-0.19,2.83-0.38,4.24c-0.14,0.98-0.26,1.98,0,2.95c-0.01,0.17,0.06,0.33,0.27,0.42c2.83,1.29,6.08,1.13,9.11,0.92
			C60.87,112.47,62.3,112.32,63.74,112.28z M77.62,69.48c-0.61,0.36-1.15-0.13-1.09-0.83c0.04-0.37,0.19-0.72,0.31-1.07
			c0.13-0.36,0.22-0.7,0.25-1.05c0.26,0.56,0.31,1.35,0.37,1.81C77.52,68.72,77.57,69.1,77.62,69.48z M51.02,110.84
			c-0.24-1.08,0.04-2.21,0.18-3.29c0.19-1.42,0.24-2.86,0.31-4.29c0.11-2.11,0.34-4.21,0.23-6.3c0.53,0.55,1.19,0.95,2.03,1.14
			c0.65,0.14,0.93-0.86,0.28-1c-2.35-0.52-2.99-3.32-3.29-5.38c-0.42-2.85-0.38-5.8-0.31-8.67c0.09-3.82,0.21-7.7,0.9-11.47
			c0.67-3.68,1.96-7.19,2.94-10.79c0.47-1.73,0.7-3.47,1.04-5.22c0.15-0.81,0.35-1.76,1.02-2.31c0.61-0.51,1.61-0.72,1.95,0.19
			c0.03,0.08,0.07,0.15,0.13,0.2c-0.2,3.04-0.55,6.07-0.87,9.1c-0.08,0.72-0.13,1.44-0.25,2.15c-0.05,0.29-0.26,2.08-0.69,2.13
			c-0.66,0.08-0.66,1.12,0,1.04c1.21-0.14,1.48-1.69,1.65-2.67c0.3-1.67,0.41-3.4,0.6-5.09c0.3-2.76,0.5-5.51,0.7-8.28
			c0.09-1.27,0.28-2.61,0.98-3.7c0.59-0.91,1.86-1.88,2.43-0.39c0.03,0.09,0.08,0.16,0.14,0.21c0.02,0.6,0.05,1.19,0.07,1.79
			c0.04,1.35-0.02,2.7-0.09,4.04c-0.91,0.18-1.81,0.26-2.74,0.26c-0.27,0-0.27,0.42,0,0.42c0.92-0.01,1.82-0.09,2.71-0.25
			c-0.01,0.16-0.02,0.33-0.03,0.49c-0.12,1.94-0.24,3.87-0.28,5.81c-0.02,0.77-0.01,1.53,0.02,2.29c0.03,0.75,0.11,1.67-0.61,2.13
			c-0.56,0.36-0.04,1.26,0.52,0.9c0.95-0.6,1.14-1.56,1.14-2.63c-0.01-1.64-0.03-3.27,0.04-4.91c0.16-3.61,0.35-7.16,0.26-10.77
			c-0.04-1.65-0.01-3.42,0.67-4.96c0.69-1.55,2.86-2.08,3.45-0.17c0.39,1.25,0.38,2.69,0.46,3.99c0.01,0.24,0.03,0.47,0.04,0.71
			c-0.15,0.72-0.19,1.48-0.25,2.16c-0.13,1.65-0.09,3.32-0.11,4.97c-0.02,2.01-0.14,4.02-0.23,6.03c-0.08,1.68-0.34,3.41,0.09,5.07
			c0.17,0.65,1.17,0.37,1-0.28c-0.42-1.61-0.12-3.35-0.05-5c0.08-1.87,0.19-3.75,0.22-5.63c0.01-0.92,0.01-1.84,0.02-2.76
			c0.01-0.02,0.02-0.04,0.02-0.06c0.36-1.44,0.42-2.96,0.36-4.47c0.27-1.13,0.83-2.1,2-1.24c1.11,0.81,0.92,2.58,1.02,3.79
			c0.16,1.89,0.31,3.79,0.44,5.69c0.26,3.78,0.44,7.57,0.57,11.36c-0.09,0.2-0.17,0.4-0.23,0.59c-0.52,1.65-0.54,3.78-0.03,5.69
			c-0.2,1.71-0.93,3.32-1.36,4.93c-1.31,0.93-2.63,1.85-4.02,2.67c-1.28,0.75-2.66,1.28-3.93,2.02c-1.26,0.73-2.28,1.69-3.01,2.85
			c-0.48-1.85-1.88-3.22-3.35-4.54c-0.2-0.18-0.49,0.11-0.29,0.29c1.52,1.36,3.01,2.77,3.34,4.78c-0.35,0.66-0.61,1.38-0.78,2.14
			c-0.14,0.65,0.86,0.93,1,0.28c0.55-2.5,2.13-4.22,4.41-5.32c2.24-1.08,4.32-2.31,6.36-3.71c-0.1,0.99-0.01,2,0.48,3.05
			c0.28,0.61,1.18,0.08,0.9-0.52c-1.09-2.36,0.19-4.79,0.91-7.18c0.32,0.64,0.71,1.23,1.18,1.71c0.47,0.48,1.2-0.26,0.74-0.74
			c-0.72-0.74-1.22-1.76-1.51-2.85c0.01-0.11-0.02-0.2-0.07-0.27c-0.32-1.33-0.36-2.76-0.19-3.95c0.12-0.86,0.9-3.53,2.23-2.84
			c0.02,0.01,0.04,0.03,0.06,0.04c0.02,0.61-0.15,1.12-0.35,1.71c-0.18,0.5-0.36,1.07-0.16,1.59c0.28,0.7,0.93,0.82,1.5,0.56
			c0.06,0.38,0.12,0.75,0.19,1.13c0.16,0.84,0.33,1.69,0.62,2.5c0.4,1.1,0.62,1.86,0.35,3.04c-0.42,1.85-0.46,3.76-0.62,5.64
			c-0.31,3.72-2.65,6.53-4.9,9.33c-1.08,1.35-1.93,2.89-3.07,4.18c-0.7,0.8-1.46,1.29-2.54,1.41c-0.88,0.1-1.74,0.08-2.59,0.4
			c-0.62,0.23-0.35,1.24,0.28,1c0.6-0.22,1.22-0.27,1.84-0.32c0.01,2.73,0.17,5.44,0.56,8.14c0.16,1.13,0.34,2.29,0.29,3.44
			c-0.02,0.37-0.01,0.78-0.31,1.02c-0.31,0.25-1.04,0.25-1.41,0.29c-2.24,0.24-4.53,0.25-6.78,0.42
			C56.79,111.73,53.67,111.97,51.02,110.84z"/>
		<path class="st0" d="M58.93,98.27c-0.34-0.58-1.24-0.05-0.9,0.52c1.04,1.76,0.57,4.23,0.55,6.18c-0.01,0.67,1.03,0.67,1.04,0
			C59.64,102.81,60.09,100.23,58.93,98.27z"/>
		<path class="st0" d="M60.14,101.23c-0.04,0.67,0.99,0.67,1.04,0c0.04-0.66-0.15-1.31-0.1-1.98c0.04-0.67-1-0.67-1.04,0
			S60.19,100.57,60.14,101.23z"/>
		<path class="st0" d="M70.12,74.7c0.64,0.21,0.91-0.79,0.28-1c-5.02-1.7-9.5,2.66-14.42,2.75c-0.67,0.01-0.67,1.05,0,1.04
			c2.41-0.04,4.65-1.01,6.87-1.86C65.17,74.76,67.67,73.87,70.12,74.7z"/>
		<path class="st0" d="M69.72,66.47c0.64,0.49,1.43,0.62,2.2,0.47c0.66-0.13,0.38-1.13-0.28-1c-0.52,0.1-0.99-0.04-1.4-0.36
			c-0.22-0.17-0.58-0.03-0.71,0.19C69.38,66.03,69.5,66.3,69.72,66.47z"/>
		<path class="st0" d="M64.44,66.52c1.04,0.17,1.98,0.53,2.86-0.27c0.5-0.45-0.24-1.18-0.74-0.74c-0.51,0.46-1.26,0.1-1.85,0
			C64.06,65.42,63.78,66.42,64.44,66.52z"/>
		<path class="st0" d="M58.76,67.49c0.77,0.26,1.5,0,2.2-0.33c0.61-0.28,0.08-1.18-0.52-0.9c-0.45,0.21-0.91,0.39-1.4,0.22
			C58.4,66.28,58.13,67.28,58.76,67.49z"/>
		<path class="st0" d="M54.61,68.62c-0.49,0.22-1.02,0.26-1.54,0.21c-0.67-0.06-0.66,0.98,0,1.04c0.72,0.07,1.41-0.06,2.06-0.35
			c0.26-0.11,0.31-0.49,0.19-0.71C55.17,68.54,54.87,68.51,54.61,68.62z"/>
		<path class="st0" d="M54.16,63.38c0.72,0.13,1.5,0.21,2.14-0.23c0.22-0.15,0.01-0.51-0.21-0.36c-0.54,0.38-1.2,0.3-1.82,0.19
			C54.01,62.93,53.9,63.33,54.16,63.38z"/>
		<path class="st0" d="M55.57,58.58c0.59,0.3,1.3,0.35,1.93,0.12c0.25-0.09,0.14-0.49-0.11-0.4c-0.52,0.19-1.11,0.17-1.61-0.08
			C55.54,58.1,55.33,58.46,55.57,58.58z"/>
		<path class="st0" d="M59.88,61.3c0.9,0.22,1.93,0.22,2.76-0.23c0.23-0.13,0.03-0.49-0.21-0.36c-0.73,0.4-1.65,0.38-2.44,0.19
			C59.73,60.84,59.62,61.24,59.88,61.3z"/>
		<path class="st0" d="M64.93,50.37c0.67,0.4,1.59,0.61,2.34,0.33c0.25-0.09,0.14-0.49-0.11-0.4c-0.65,0.24-1.44,0.06-2.02-0.29
			C64.91,49.87,64.7,50.23,64.93,50.37z"/>
		<path class="st0" d="M66.53,57.78c-0.5,0.11-1,0.09-1.5,0.1c-0.27,0-0.27,0.42,0,0.42c0.54,0,1.08,0.01,1.61-0.11
			C66.91,58.13,66.8,57.72,66.53,57.78z"/>
		<path class="st0" d="M70.23,52.86c0.64,0.45,1.39,0.55,2.14,0.33c0.26-0.07,0.15-0.48-0.11-0.4c-0.65,0.19-1.26,0.1-1.82-0.29
			C70.22,52.35,70.01,52.71,70.23,52.86z"/>
		<path class="st0" d="M70.17,60.05c0.46,0.13,0.93,0.11,1.41,0.11c0.27,0,0.27-0.42,0-0.42c-0.44,0-0.87,0.02-1.3-0.1
			C70.03,59.58,69.92,59.98,70.17,60.05z"/>
	</g>
</g>
</svg>
