<?xml version="1.0" encoding="utf-8"?>
<!-- Generator: Adobe Illustrator 25.0.0, SVG Export Plug-In . SVG Version: 6.00 Build 0)  -->
<svg version="1.1" id="Calque_1" xmlns="http://www.w3.org/2000/svg" xmlns:xlink="http://www.w3.org/1999/xlink" x="0px" y="0px"
	 viewBox="0 0 127.56 170.08" style="enable-background:new 0 0 127.56 170.08;" xml:space="preserve">
<style type="text/css">
	.st0{fill:#343434;}
</style>
<g>
	<path class="st0" d="M78.11,60.75c-0.29-0.22-0.6-0.37-0.93-0.48c0.01-0.04,0.02-0.08,0.02-0.12c0.03-1.76,0.37-3.68-0.35-5.36
		c-0.68-1.6-2.5-2.51-4.21-2.19c-1.3,0.24-2.08,1.14-2.54,2.29c-0.06-0.16-0.13-0.33-0.22-0.49c-0.81-1.56-2.4-1.93-4.02-1.45
		c-1.77,0.53-2.99,1.84-3.47,3.62c-0.09,0.33-0.14,0.67-0.18,1.01c-0.23-0.42-0.52-0.8-0.9-1.1c-1.62-1.26-3.84,0.16-5.14,1.24
		c-0.88,0.73-1.58,1.56-1.75,2.72c-0.07,0.48-0.06,0.95,0.01,1.43c-2.78-2.63-5.87,1.52-6.87,3.88c-1.94,4.59-1.27,10.08-0.63,14.88
		c0.52,3.87,1.23,8.4,3.89,11.42c-0.14,0.08-0.24,0.22-0.24,0.43c0.1,3.88-0.65,7.67-0.95,11.52c-0.15,1.91-0.27,3.81-0.51,5.72
		c-0.23,1.79,0.03,3.62-0.39,5.39c-0.04,0.18,0.01,0.34,0.1,0.45c0.03,0.16,0.15,0.29,0.36,0.33c3.5,0.57,7.02,1.02,10.57,1.23
		c1.82,0.1,3.65,0.14,5.47,0.09c1.23-0.03,2.59,0.15,3.8-0.01c2.14-0.28,1.42-2.75,1.13-4.23c-0.61-3.2-0.65-6.53-0.79-9.77
		c-0.18-4.13,0-8.22,0.02-12.34c0-0.07-0.01-0.12-0.03-0.18c0.96-0.67,1.65-1.66,2.35-2.59c1.82-2.41,3.47-4.88,5.42-7.18
		c1.53-1.8,3.22-3.79,3.69-6.17c0.56-2.84-0.84-5.82-1.08-8.64C79.6,64.35,79.67,61.92,78.11,60.75z M72.56,53.68
		c1.57-0.53,3.15,0.58,3.52,2.08c0.35,1.4,0.1,2.9,0.08,4.33c-1.58-0.07-3.31,0.61-4.8,0.57c-0.28-0.01-0.59-0.06-0.92-0.13
		c0-0.02,0.01-0.05,0.01-0.07c0.01-0.97,0.1-2,0.08-3.02C70.69,55.79,71.18,54.15,72.56,53.68z M70.35,63.23
		c-0.64,0-1.16-0.72-1.55-1.15c-0.53-0.57-1.07-0.88-1.76-0.81c0.6-0.42,1.74-0.03,2.36,0.11c0.52,0.12,1.03,0.23,1.55,0.29
		C71.2,62.32,71.24,63.23,70.35,63.23z M63.21,57.83c0.19-1.68,0.99-3.18,2.64-3.79c3.2-1.18,3.59,1.77,3.59,4.32
		c-0.04,0.69-0.04,1.35-0.04,1.92c-1.27-0.3-2.6-0.52-3.36,0.53c-0.9,1.25-0.73,3.01,0.18,4.18c0.73,0.94,1.87,1.67,3.15,2.1
		c-0.09,0.24-0.21,0.48-0.34,0.71c-1.9,0.46-4.68,0.57-5.36-1.55c-0.03-0.09-0.1-0.14-0.18-0.14c-0.13-0.93-0.28-1.86-0.38-2.79
		c0.03-0.09,0.05-0.19,0.02-0.3c-0.05-0.22-0.08-0.45-0.11-0.69c-0.01-0.09-0.01-0.18-0.02-0.27c-0.01-0.31-0.03-0.64-0.05-0.98
		C62.97,59.98,63.1,58.84,63.21,57.83z M71.34,69.5c-0.61,0.02-1.11-0.48-1.63-0.82c0.28-0.41,0.51-0.86,0.67-1.31
		c0.46,0.09,0.93,0.15,1.39,0.17C71.55,68.17,71.4,68.83,71.34,69.5z M58.8,70.36c0,0,0-0.01,0-0.01c1.54,0.22,2.75,0.01,3.86-0.96
		c-0.03,0.17-0.07,0.33-0.13,0.49c-0.42,1.24-2.56,2.05-3.39,0.72C59.05,70.45,58.93,70.38,58.8,70.36z M63.69,67.2
		c1.04,1.42,3.24,1.47,5.02,1.11c-0.61,0.82-1.49,1.43-2.55,1.41C64.69,69.68,63.81,68.54,63.69,67.2z M55.41,60.91
		c0.06-1.2,0.88-2,1.79-2.68c0.72-0.54,1.71-1.2,2.64-1.2c1.06-0.01,1.54,1.11,1.77,1.99c0.21,0.79,0.31,1.61,0.38,2.44
		c-0.01,0.53,0.02,1.07,0.11,1.6c0.04,0.73,0.1,1.45,0.21,2.16c0.1,0.63,0.25,1.34,0.34,2.05c0.01,0.12,0.02,0.23,0.04,0.35
		c0.04,0.38,0.06,0.76,0.04,1.13c-0.48,0.53-1.03,1-1.74,1.2c-0.76,0.21-1.55,0.11-2.31-0.03c-0.31-1.02-0.86-2.03-1.25-2.81
		c-0.31-0.62-0.6-1.29-0.91-1.95c0.01-0.07,0.01-0.16-0.03-0.25C55.99,63.64,55.33,62.29,55.41,60.91z M79.83,74.45
		c-0.41,2.15-1.95,3.97-3.32,5.59c-1.61,1.91-3.05,3.88-4.51,5.91c-0.83,1.16-1.65,2.46-2.69,3.44c-0.97,0.92-2.19,1.17-3.49,1.22
		c-0.67,0.03-0.67,1.07,0,1.04c0.86-0.03,1.73-0.14,2.53-0.44c-0.03,4.01-0.2,7.98-0.02,11.99c0.16,3.57,0.32,7.13,0.94,10.66
		c0.09,0.51,0.34,1.31,0.19,1.82c-0.2,0.71-1.03,0.53-1.67,0.49c-1.8-0.1-3.61,0.05-5.41,0.01c-4.22-0.08-8.41-0.57-12.57-1.23
		c0.29-1.56,0.13-3.15,0.28-4.73c0.18-1.94,0.4-3.87,0.54-5.82c0.27-3.86,1.03-7.66,0.98-11.54c0.37,0.33,0.76,0.63,1.19,0.9
		c0.57,0.36,1.09-0.54,0.52-0.9c-3.16-2.01-4.29-5.91-4.93-9.39c-0.83-4.52-1.4-9.39-0.84-13.97c0.29-2.4,1.49-5.98,3.84-7.11
		c1.73-0.83,2.76,0.58,3.51,1.97c0.71,1.32,1.37,2.7,2,4.06c0.33,0.7,0.77,1.59,0.9,2.43c-0.62,0.94-1.78,1.92-2.89,1.5
		c-0.11-0.04-0.2,0.02-0.23,0.11c-1.6-1.4-3.17-3.49-3.62-5.59c-0.14-0.65-1.14-0.38-1,0.28c0.24,1.12,0.77,2.21,1.44,3.21
		c-0.94-0.12-1.91-0.06-2.82-0.36c-0.25-0.08-0.36,0.32-0.11,0.4c1.06,0.35,2.19,0.22,3.26,0.43c0.58,0.8,1.25,1.54,1.92,2.17
		c0.63,0.6,1.35,1.11,2.25,1.1c0.97-0.02,2.06-0.55,2.56-1.4c0.17-0.28,0.27-0.58,0.31-0.9c1.38,0.99,3.67,0.38,4.45-1.16
		c0.16-0.31,0.26-0.64,0.32-0.99c0.55,0.6,1.31,1,2.23,1.09c1.25,0.12,2.34-0.42,3.17-1.25c0,0,0,0,0,0c0.37,0.15,0.67,0.47,1,0.68
		c0.05,0.03,0.11,0.06,0.16,0.09c-2.13,0.51-4.04,2.1-5.61,3.51c-2.2,1.99-4.51,4.46-4.97,7.51c-0.1,0.65,0.9,0.94,1,0.28
		c0.42-2.8,2.49-5.03,4.5-6.87c1.66-1.53,3.82-3.42,6.2-3.55c0.14,1.35,0.62,2.66,1.47,3.72c0.42,0.52,1.15-0.22,0.74-0.74
		c-1.42-1.77-1.55-4.58-0.65-6.62c1.14-0.13,2.2-0.52,3.01-1.24c0.5-0.45-0.24-1.18-0.74-0.74c-1.95,1.73-5.8,0.96-7.61-0.62
		c-0.45-0.39-0.83-0.88-0.99-1.46c-0.12-0.44-0.12-1.16,0.1-1.68c1.81-0.57,2.13,1.97,3.84,1.89c1.04-0.05,1.12-1.13,0.88-1.98
		c0.19,0.01,0.38,0,0.58-0.02c1.67-0.16,4.61-1.35,5.86,0.27c1.03,1.32,0.77,3.49,0.99,5.07C79.14,69.39,80.29,72.05,79.83,74.45z
		 M57.85,71.52c0,0.03,0,0.06-0.01,0.08c-0.16,1.24-1.42,1.62-2.43,1.27C56.33,72.9,57.23,72.26,57.85,71.52z"/>
	<path class="st0" d="M58.69,93.31c-0.03,1.37,0.31,2.71,0.33,4.08c0.02,1.38-0.08,2.76-0.22,4.13c-0.07,0.67,0.97,0.66,1.04,0
		c0.14-1.37,0.24-2.75,0.22-4.13c-0.02-1.37-0.35-2.71-0.33-4.08C59.74,92.64,58.7,92.64,58.69,93.31z"/>
	<path class="st0" d="M60.87,93.1c-0.28,0-0.52,0.24-0.52,0.52v0.94c0,0.28,0.24,0.52,0.52,0.52c0.28,0,0.52-0.24,0.52-0.52v-0.94
		C61.39,93.34,61.15,93.1,60.87,93.1z"/>
	<path class="st0" d="M69.54,84.16c-1.21-0.84-1.93-2.17-3.01-3.16c-0.2-0.18-0.49,0.11-0.29,0.29c1.1,1.01,1.84,2.36,3.09,3.22
		C69.55,84.67,69.76,84.31,69.54,84.16z"/>
	<path class="st0" d="M67.46,83.88c-0.42-0.27-0.84-0.55-1.25-0.83c-0.22-0.15-0.43,0.21-0.21,0.36c0.41,0.28,0.83,0.56,1.25,0.83
		C67.47,84.38,67.68,84.02,67.46,83.88z"/>
	<path class="st0" d="M59.22,79.1c-1.3-2.51-4.52-3.36-7.06-3.98c-0.26-0.06-0.37,0.34-0.11,0.4c2.43,0.6,5.56,1.38,6.81,3.79
		C58.98,79.55,59.34,79.34,59.22,79.1z"/>
</g>
</svg>
